<?xml version="1.0" encoding="UTF-8" standalone="no"?>
<svg
   id="svg14"
   xml:space="preserve"
   viewBox="0 0 547.55792 135.0806"
   y="0px"
   x="0px"
   version="1.1"
   sodipodi:docname="brandmark-design.svg"
   inkscape:export-filename="brandmark-design4.svg"
   inkscape:export-xdpi="96"
   inkscape:export-ydpi="96"
   width="547.55792"
   height="135.0806"
   xmlns:inkscape="http://www.inkscape.org/namespaces/inkscape"
   xmlns:sodipodi="http://sodipodi.sourceforge.net/DTD/sodipodi-0.dtd"
   xmlns="http://www.w3.org/2000/svg"
   xmlns:svg="http://www.w3.org/2000/svg"
   xmlns:rdf="http://www.w3.org/1999/02/22-rdf-syntax-ns#"
   xmlns:cc="http://creativecommons.org/ns#"
   xmlns:dc="http://purl.org/dc/elements/1.1/"><sodipodi:namedview
     id="namedview16"
     pagecolor="#ffffff"
     bordercolor="#000000"
     borderopacity="0.25"
     inkscape:showpageshadow="2"
     inkscape:pageopacity="0.0"
     inkscape:pagecheckerboard="0"
     inkscape:deskcolor="#d1d1d1"
     showgrid="false" /><metadata
     id="metadata20"><rdf:RDF><cc:Work
         rdf:about=""><dc:format>image/svg+xml</dc:format><dc:type
           rdf:resource="http://purl.org/dc/dcmitype/StillImage" /></cc:Work></rdf:RDF></metadata><defs
     id="defs18" /><g
     style="fill:#ffffff"
     transform="translate(-246.00209,-316.39)"
     id="logo-group"
     inkscape:export-filename="logo-group.svg"
     inkscape:export-xdpi="96"
     inkscape:export-ydpi="96"><path
       stroke-miterlimit="2"
       d="m 414.69,409.2 v 7.2 h 43.74 v -7.2 z m 8.1,-56.7 h -8.1 v 48.6 h 8.1 z"
       style="font-variant-ligatures:none;stroke-width:0;stroke-miterlimit:2"
       id="path253544" /><path
       stroke-miterlimit="2"
       d="m 465.98,416.4 h 7.92 v -46.98 h -7.92 z m 0,-55.8 h 7.92 v -9.9 h -7.92 z"
       style="font-variant-ligatures:none;stroke-width:0;stroke-miterlimit:2"
       id="path253546" /><path
       stroke-miterlimit="2"
       d="m 510.85,417.3 c 3.06,0 6.03,-0.63 8.73,-1.89 2.7,-1.26 5.13,-3.06 7.11,-5.22 1.98,-2.16 3.51,-4.77 4.68,-7.74 1.08,-2.88 1.71,-6.03 1.71,-9.36 0,-3.06 -0.54001,-6.12 -1.53,-9.09 -0.99002,-2.97 -2.43,-5.58 -4.23,-7.83 -1.8,-2.25 -4.05,-4.05 -6.57,-5.49 -2.61,-1.35 -5.49,-2.07 -8.73,-2.07 -3.87,0 -7.2,0.99 -10.08,2.79 -2.88,1.89 -5.31,4.32 -7.29,7.38 V 350.7 h -7.92 v 65.7 h 7.02 v -8.82 c 1.71,2.88 4.05,5.22 7.11,7.02 2.97,1.8 6.3,2.7 9.99,2.7 z m -1.98,-6.84 c -1.44,0 -2.97,-0.27 -4.5,-0.81 -1.53,-0.54 -2.97,-1.26 -4.32,-2.16 -1.35,-0.9 -2.52,-2.07 -3.51,-3.33 -0.99,-1.26 -1.62,-2.61 -1.89,-4.14 v -13.59 c 0.72,-1.44 1.53,-2.88 2.52,-4.23 0.99,-1.26 2.16,-2.43 3.42,-3.42 1.26,-0.99 2.7,-1.8 4.23,-2.43 1.44,-0.54 3.06,-0.9 4.77,-0.9 2.25,0 4.32,0.54 6.21,1.53 1.89,0.99 3.51,2.25 4.86,3.87 1.35,1.62 2.43,3.51 3.15,5.67 0.72,2.16 1.17,4.32 1.17,6.57 0,2.34 -0.45,4.5 -1.17,6.57 -0.81,2.07 -1.89,3.87 -3.33,5.49 -1.44,1.62 -3.15,2.97 -5.13,3.87 -1.98,0.99 -4.14,1.44 -6.48,1.44 z"
       style="font-variant-ligatures:none;stroke-width:0;stroke-miterlimit:2"
       id="path253548" /><path
       stroke-miterlimit="2"
       d="m 567.64,376.35 v -7.2 c -0.36,0 -0.72,-0.09 -1.08,-0.09 h -1.53 c -3.06,0.27 -5.85,1.44 -8.46,3.42 -2.7,1.98 -4.77,4.59 -6.39,7.83 v -10.89 h -7.38 v 46.98 h 7.92 v -28.98 c 1.26,-3.42 3.33,-6.03 6.39,-8.01 3.06,-1.89 6.57,-2.88 10.53,-3.06 z"
       style="font-variant-ligatures:none;stroke-width:0;stroke-miterlimit:2"
       id="path253550" /><path
       stroke-miterlimit="2"
       d="m 595.23,417.3 c 2.34,0 4.59,-0.27 6.75,-0.9 2.16,-0.54 4.05,-1.35 5.85,-2.43 1.8,-1.08 3.33,-2.34 4.68,-3.78 1.35,-1.44 2.43,-2.97 3.24,-4.77 l -6.84,-1.89 c -0.54,1.26 -1.26,2.34 -2.16,3.24 -0.90001,0.99 -1.98,1.8 -3.15,2.43 -1.26,0.72 -2.52,1.26 -3.87,1.62 -1.44,0.36 -2.79,0.54 -4.23,0.54 -2.07,0 -4.05,-0.36 -5.85,-1.17 -1.8,-0.72 -3.42,-1.8 -4.86,-3.24 -1.44,-1.35 -2.61,-2.97 -3.51,-4.95 -0.9,-1.89 -1.44,-4.05 -1.62,-6.39 h 38.97 c 0,-0.27 0.09,-0.72 0.09,-1.26 0,-0.54 0.09,-1.08 0.09,-1.8 0,-3.06 -0.63,-6.12 -1.71,-9 -1.08,-2.88 -2.7,-5.49 -4.68,-7.65 -2.07,-2.16 -4.59,-3.96 -7.47,-5.31 -2.88,-1.26 -6.12,-1.98 -9.63,-1.98 -3.6,0 -6.84,0.72 -9.72,1.98 -2.97,1.26 -5.49,3.06 -7.65,5.22 -2.16,2.25 -3.78,4.86 -4.95,7.74 -1.17,2.97 -1.71,6.12 -1.71,9.36 0,3.33 0.54,6.48 1.71,9.45 1.17,2.97 2.79,5.58 4.95,7.74 2.07,2.25 4.59,4.05 7.56,5.31 2.88,1.26 6.12,1.89 9.72,1.89 z m 16.11,-27.54 h -31.86 c 0.18,-2.16 0.63,-4.23 1.53,-6.12 0.9,-1.8 1.98,-3.42 3.42,-4.77 1.44,-1.35 3.06,-2.43 4.95,-3.15 1.8,-0.72 3.78,-1.17 5.94,-1.17 2.07,0 4.05,0.45 5.94,1.17 1.8,0.72 3.42,1.8 4.86,3.06 1.44,1.35 2.61,2.97 3.51,4.86 0.9,1.89 1.53,3.96 1.71,6.12 z"
       style="font-variant-ligatures:none;stroke-width:0;stroke-miterlimit:2"
       id="path253552" /><path
       stroke-miterlimit="2"
       d="m 682.69,396.87 c 1.53,-3.87 2.34,-8.01 2.34,-12.33 0,-3.96 -0.72,-7.92 -2.16,-11.79 -1.44,-3.87 -3.51,-7.29 -6.12,-10.44 -2.7,-3.06 -5.85,-5.49 -9.45,-7.38 -3.69,-1.89 -7.83,-2.88 -12.24,-2.88 -4.41,0 -8.37,0.9 -12.06,2.7 -3.69,1.8 -6.84,4.14 -9.54,7.11 -2.7,3.06 -4.86,6.48 -6.39,10.35 -1.53,3.96 -2.25,8.01 -2.25,12.24 0,4.14 0.72001,8.1 2.16,11.97 1.44,3.96 3.42,7.38 6.12,10.35 2.61,3.06 5.76,5.49 9.45,7.29 3.69,1.89 7.74,2.79 12.33,2.79 3.24,0 6.3,-0.45 9.18,-1.53 0.18,0 0.44999,-0.18 0.80999,-0.27 l -5.22,-6.03 c -1.44,0.36 -3.06,0.54 -4.68,0.54 -3.33,0 -6.3,-0.63 -9,-2.07 -2.7,-1.35 -5.04,-3.24 -6.93,-5.58 -1.98,-2.34 -3.42,-4.95 -4.5,-8.01 -1.08,-3.06 -1.53,-6.12 -1.53,-9.45 0,-3.06 0.45,-6.12 1.53,-9.18 0.99,-2.97 2.43,-5.67 4.32,-8.01 1.89,-2.34 4.23,-4.32 6.93,-5.76 2.7,-1.44 5.76,-2.16 9.18,-2.16 3.15,0 6.12,0.72 8.82,2.07 2.7,1.44 4.95,3.24 6.93,5.58 1.98,2.34 3.42,5.04 4.5,8.1 1.08,3.06 1.62,6.12 1.62,9.36 0,3.06 -0.54,6.03 -1.44,8.91 -0.99,2.88 -2.34,5.49 -4.05,7.83 l -4.86,-5.67 h -7.92 l 8.55,9.99 4.86,5.67 4.5,5.22 h 7.92 l -8.01,-9.27 c 2.61,-2.97 4.77,-6.39 6.3,-10.26 z"
       style="font-variant-ligatures:none;stroke-width:0;stroke-miterlimit:2"
       id="path253554" /><path
       stroke-miterlimit="2"
       d="m 715.37,417.3 c 3.51,0 6.75,-0.63 9.63,-1.98 2.88,-1.26 5.4,-3.06 7.56,-5.31 2.07,-2.16 3.69,-4.77 4.86,-7.74 1.08,-2.88 1.71,-6.03 1.71,-9.27 0,-3.24 -0.63,-6.39 -1.8,-9.36 -1.17,-2.88 -2.79,-5.49 -4.86,-7.74 -2.07,-2.16 -4.59,-3.96 -7.47,-5.31 -2.97,-1.26 -6.21,-1.98 -9.63,-1.98 -3.51,0 -6.75,0.72 -9.63,1.98 -2.88,1.35 -5.4,3.15 -7.47,5.31 -2.07,2.25 -3.69,4.86 -4.86,7.74 -1.17,2.97 -1.71,6.12 -1.71,9.36 0,3.24 0.54,6.39 1.71,9.27 1.08,2.97 2.7,5.58 4.77,7.74 2.07,2.25 4.59,4.05 7.47,5.31 2.88,1.35 6.12,1.98 9.72,1.98 z M 699.8,393.09 c 0,-2.43 0.36001,-4.68 1.17,-6.84 0.80999,-2.16 1.89,-3.96 3.33,-5.58 1.44,-1.62 3.06,-2.88 4.95,-3.78 1.89,-0.9 3.96,-1.44 6.12,-1.44 2.16,0 4.14,0.45 6.03,1.35 1.89,0.9 3.6,2.16 5.04,3.78 1.44,1.62 2.52,3.42 3.33,5.58 0.81002,2.16 1.26,4.41 1.26,6.75 0,2.52 -0.45,4.77 -1.26,6.93 -0.81,2.16 -1.89,3.96 -3.33,5.58 -1.44,1.62 -3.15,2.79 -5.04,3.69 -1.89,0.9 -3.87,1.35 -6.03,1.35 -2.16,0 -4.23,-0.45 -6.12,-1.35 -1.89,-0.9 -3.51,-2.07 -4.95,-3.69 -1.44,-1.53 -2.52,-3.33 -3.33,-5.49 -0.81,-2.07 -1.17,-4.32 -1.17,-6.84 z"
       style="font-variant-ligatures:none;stroke-width:0;stroke-miterlimit:2"
       id="path253556" /><path
       stroke-miterlimit="2"
       d="m 786.9,365.91 3.78,-6.57 c -2.7,-2.16 -5.85,-3.96 -9.27,-5.31 -3.51,-1.26 -7.38,-1.98 -11.7,-1.98 -3.33,0 -6.39,0.45 -9.18,1.26 -2.88,0.81 -5.31,1.98 -7.29,3.6 -2.07,1.62 -3.69,3.6 -4.77,5.94 -1.17,2.34 -1.71,5.04 -1.71,8.1 0,2.52 0.36,4.68 1.26,6.48 0.81,1.8 2.07,3.33 3.69,4.59 1.62,1.26 3.69,2.34 6.21,3.24 2.43,0.9 5.31,1.8 8.55,2.52 2.88,0.72 5.49,1.44 7.83,2.16 2.34,0.72 4.23,1.44 5.85,2.34 1.53,0.9 2.7,1.98 3.51,3.24 0.81,1.26 1.26,2.7 1.26,4.5 0,3.24 -1.26,5.67 -3.78,7.29 -2.52,1.62 -6.12,2.43 -10.62,2.43 -2.52,0 -4.86,-0.18 -7.11,-0.72 -2.25,-0.54 -4.32,-1.17 -6.3,-1.98 -1.98,-0.81 -3.69,-1.71 -5.22,-2.79 -1.53,-0.99 -2.79,-1.98 -3.69,-3.06 l -3.87,6.84 c 3.6,2.97 7.56,5.22 11.97,6.75 4.41,1.53 9.09,2.25 14.04,2.25 3.24,0 6.3,-0.27 9.18,-0.99 2.79,-0.72 5.22,-1.8 7.29,-3.24 2.07,-1.44 3.69,-3.33 4.95,-5.58 1.17,-2.25 1.8,-4.95 1.8,-8.01 0,-2.88 -0.54,-5.31 -1.53,-7.29 -0.99,-1.98 -2.43,-3.6 -4.32,-5.04 -1.89,-1.35 -4.14,-2.52 -6.84,-3.42 -2.7,-0.9 -5.67,-1.8 -8.91,-2.52 -2.88,-0.63 -5.4,-1.26 -7.47,-1.89 -2.16,-0.54 -3.87,-1.26 -5.31,-2.07 -1.44,-0.81 -2.43,-1.8 -3.06,-2.97 -0.72,-1.08 -0.99,-2.52 -0.99,-4.32 0,-3.24 1.08,-5.76 3.42,-7.65 2.34,-1.8 5.94,-2.79 10.98,-2.79 1.89,0 3.69,0.27 5.49,0.63 1.8,0.36 3.42,0.9 4.95,1.53 1.44,0.63 2.79,1.35 4.05,2.07 1.17,0.81 2.16,1.62 2.88,2.43 z"
       style="font-variant-ligatures:none;stroke-width:0;stroke-miterlimit:2"
       id="path253558" /><path
       style="stroke-width:0.75"
       d="m 304.88,316.39 c -0.1643,0.002 -0.41117,0.0279 -0.54877,0.0584 -0.13762,0.0304 -0.35488,0.0947 -0.48289,0.14303 -0.12802,0.0484 -5.1571,2.9265 -11.176,6.3956 -6.0218,3.4695 -18.692,10.774 -28.159,16.231 -9.4672,5.457 -17.308,10 -17.425,10.096 -0.11634,0.0955 -0.29524,0.27397 -0.39699,0.39698 -0.10174,0.12302 -0.26813,0.3924 -0.37029,0.59882 -0.12176,0.24728 -0.20767,0.49623 -0.25187,0.72975 l -0.0671,0.35445 0.0392,32.63 0.0388,32.63 0.0721,0.2502 c 0.0396,0.13761 0.14429,0.40032 0.2331,0.5838 0.0884,0.18348 0.26188,0.45536 0.38573,0.60465 0.12384,0.14887 0.32692,0.34862 0.45119,0.44368 0.12468,0.0951 0.75187,0.48164 1.394,0.85988 0.64219,0.3778 1.6276,0.9645 2.1892,1.3031 0.56212,0.33902 2.1008,1.2769 3.4194,2.0846 1.319,0.80729 4.5653,2.8056 7.2141,4.441 2.6492,1.6351 6.0736,3.746 7.6102,4.6908 1.5367,0.94447 3.8802,2.379 5.2079,3.1876 1.3273,0.80813 3.2414,1.9678 4.2534,2.5762 1.0117,0.60882 2.645,1.585 3.6292,2.1697 0.98453,0.58422 2.5045,1.4795 3.3777,1.9895 0.87361,0.51041 2.3761,1.3778 3.3393,1.9282 0.9633,0.55044 2.3614,1.3386 3.1066,1.7518 0.7456,0.41326 1.8431,1.0142 2.4394,1.3357 0.59632,0.32109 1.4878,0.7956 1.9808,1.0546 0.49331,0.25855 1.3753,0.70765 1.9599,0.99706 0.58505,0.28981 1.4012,0.68388 1.8139,0.87569 0.41283,0.19182 1.0792,0.48873 1.4804,0.6597 0.40157,0.17139 1.0267,0.42242 1.3898,0.55836 0.36321,0.13552 0.82275,0.29607 1.0216,0.35695 0.29982,0.0913 0.44661,0.11051 0.86197,0.11343 0.44411,0.003 0.54168,-0.01 0.86611,-0.11635 0.20099,-0.0663 0.48246,-0.19015 0.62549,-0.27605 0.14304,-0.0859 4.9606,-2.8727 10.706,-6.1929 5.7454,-3.3202 11.037,-6.3788 11.759,-6.7976 0.72225,-0.41824 7.2808,-4.2096 14.574,-8.4248 7.2933,-4.2154 13.898,-8.0325 14.678,-8.4832 0.77978,-0.45036 2.0837,-1.2026 2.8982,-1.6713 l 1.4799,-0.85275 0.37572,-0.3753 c 0.20642,-0.20641 0.43743,-0.48163 0.51375,-0.61174 0.0763,-0.12968 0.1839,-0.36696 0.23936,-0.52667 0.0559,-0.15971 0.11884,-0.42868 0.14053,-0.59756 0.0242,-0.18973 0.0442,-12.789 0.0525,-32.896 l 0.0129,-32.588 -0.098,-0.2919 c -0.0538,-0.16055 -0.16471,-0.41992 -0.24645,-0.57629 -0.0817,-0.15638 -0.27646,-0.42159 -0.43243,-0.5888 -0.15637,-0.16722 -0.40198,-0.37989 -0.54585,-0.47288 -0.14386,-0.093 -12.854,-7.4259 -28.243,-16.295 -15.389,-8.8694 -28.092,-16.172 -28.228,-16.228 -0.13594,-0.0559 -0.38614,-0.12844 -0.55586,-0.16055 -0.17014,-0.0325 -0.44327,-0.0575 -0.60757,-0.0559 z m -1.0845,7.1277 c 0.006,0 0.0109,4.6679 0.01,10.372 l -10e-4,10.373 -10.632,6.1208 -10.634,6.1208 -13.677,-2.4518 c -7.5218,-1.3478 -13.676,-2.463 -13.677,-2.4772 0,-0.0146 0.83025,-0.5054 1.8452,-1.0904 1.015,-0.58505 11.95,-6.8922 24.3,-14.016 12.35,-7.1236 22.46,-12.952 22.466,-12.952 z m 2.2768,0 c 0.007,0 9.939,5.725 22.07,12.723 l 24.325,14.031 c 1.2481,0.71932 2.2426,1.3168 2.2101,1.3277 -0.0321,0.0109 -6.1574,1.1105 -13.611,2.444 -7.4539,1.3331 -13.599,2.4332 -13.657,2.444 -0.0813,0.0154 -1.3411,-0.69347 -5.7129,-3.2151 -3.0845,-1.7794 -7.8645,-4.5341 -10.621,-6.122 l -5.01,-2.8868 -0.007,-10.373 c -10e-4,-5.705 0.005,-10.372 0.0117,-10.372 z m -1.9215,23.145 c 0.0171,-10e-4 0.0313,4.961 0.0313,11.027 0,6.0661 -0.0158,11.03 -0.0354,11.03 -0.0196,0 -3.8806,-2.216 -8.58,-4.9244 -4.6996,-2.7088 -8.9895,-5.1808 -9.534,-5.494 -0.54419,-0.31318 -0.98955,-0.57921 -0.98955,-0.59048 0,-0.0117 2.6959,-1.5784 5.9911,-3.482 3.2956,-1.9036 7.5878,-4.3844 9.5385,-5.5127 1.9508,-1.1284 3.5608,-2.0525 3.5779,-2.0537 z m 1.673,0.0701 c 0.0776,0.0405 4.3835,2.5224 9.57,5.5156 5.1858,2.9928 9.429,5.4514 9.4298,5.4632 0,0.0117 -4.2959,2.4932 -9.5468,5.5148 -5.2509,3.0216 -9.558,5.4935 -9.57,5.4935 -0.0125,0 -0.023,-4.964 -0.023,-11.03 v -11.03 z m -47.2,7.7828 c 0.0688,0.0138 5.4356,0.97575 11.926,2.138 l 11.801,2.1138 10.717,6.1796 10.717,6.1799 0.0104,4.7417 c 0.006,2.6075 -0.003,4.733 -0.0208,4.7225 -0.0172,-0.0105 -9.207,-5.3055 -20.422,-11.768 -11.216,-6.4612 -21.386,-12.321 -22.601,-13.021 -1.2158,-0.69975 -2.2192,-1.2818 -2.2312,-1.2922 -0.0113,-0.0108 0.0354,-0.009 0.10425,0.005 z m 92.678,-0.0113 c 0.0326,-0.002 0.0513,0.003 0.0417,0.0121 -0.01,0.008 -10.188,5.8747 -22.619,13.036 -12.43,7.1615 -22.616,13.029 -22.633,13.04 -0.0176,0.01 -0.0267,-2.1146 -0.0208,-4.7217 l 0.0104,-4.7404 10.592,-6.1166 c 5.8255,-3.364 10.648,-6.1474 10.717,-6.1853 0.0717,-0.0396 0.89152,-0.20475 1.9182,-0.38655 0.98617,-0.17431 2.356,-0.41867 3.0441,-0.54252 0.68805,-0.12385 2.6771,-0.48039 4.4202,-0.7923 1.7431,-0.31192 4.5766,-0.819 6.2967,-1.1267 1.7201,-0.30816 4.263,-0.76477 5.6504,-1.0154 1.3878,-0.25062 2.5496,-0.45745 2.5821,-0.45954 z m -99.24,2.4982 c 0.0346,0.0342 4.0899,4.8263 9.012,10.649 l 8.9498,10.587 -10e-4,12.265 -0.001,12.262 -8.9272,5.1525 c -4.9097,2.8323 -8.9528,5.1562 -8.985,5.1633 -0.0488,0.0117 -0.0575,-1.3769 -0.0575,-9.219 0,-5.0778 -0.0117,-17.713 -0.0259,-28.078 -0.0232,-16.786 -0.0195,-18.838 0.0368,-18.782 z m 105.74,-0.039 c 0.006,-0.001 0.0104,12.627 0.0104,28.062 0,15.435 -0.0155,28.064 -0.0346,28.064 -0.0188,0 -4.0203,-2.301 -8.8928,-5.1133 -4.8718,-2.8123 -8.9002,-5.1328 -8.952,-5.1566 l -0.0938,-0.0433 v -24.54 l 8.976,-10.636 c 4.9369,-5.8501 8.9805,-10.638 8.9865,-10.639 z m -101.51,1.491 c 0.0459,0.0254 10.223,5.9072 22.617,13.07 12.393,7.1636 22.534,13.042 22.534,13.064 4.2e-4,0.0221 -0.50373,0.3311 -1.1205,0.6868 -0.61674,0.35612 -2.447,1.4128 -4.0674,2.3481 l -2.9461,1.7006 -8.6048,-4.9807 c -4.7332,-2.7412 -9.5565,-5.5335 -10.718,-6.207 l -2.112,-1.2248 -7.7662,-9.174 c -4.2712,-5.0452 -7.7962,-9.2092 -7.8338,-9.2528 l -0.0675,-0.0788 z m 97.252,0.009 c 0.006,-4.2e-4 0.0104,0.008 0.0104,0.0179 0,0.0104 -3.5015,4.162 -7.7812,9.2265 l -7.7805,9.207 -10.714,6.2054 -10.714,6.2054 -2.3648,-1.3648 c -1.3006,-0.7506 -3.1246,-1.8039 -4.0537,-2.341 -0.92865,-0.53668 -1.7043,-0.99082 -1.723,-1.0091 -0.0192,-0.0184 0.028,-0.0709 0.10425,-0.11676 0.0759,-0.0459 1.7806,-1.0321 3.7872,-2.1917 2.007,-1.1601 12.103,-6.9981 22.435,-12.974 10.333,-5.9756 18.79,-10.865 18.796,-10.865 z m -81.225,21.321 c 0.0171,0.0104 4.3097,2.4899 9.5385,5.5111 5.2292,3.0208 9.5212,5.5052 9.5378,5.5207 0.0167,0.0154 -4.1854,2.4578 -9.3375,5.4272 -5.152,2.9695 -9.4582,5.4514 -9.5692,5.5148 l -0.20141,0.11551 v -11.054 c 0,-6.0794 0.0142,-11.045 0.0313,-11.036 z m 65.26,6.9852 c 0.005,3.8456 -0.005,8.8125 -0.0208,11.037 l -0.0305,4.0457 -9.5355,-5.5049 c -5.2446,-3.0278 -9.5265,-5.5136 -9.516,-5.5244 0.0109,-0.0108 4.3114,-2.5004 9.5565,-5.5323 l 9.54,-5.5132 z m -34.965,-0.195 c 0.0171,-0.001 0.0313,11.738 0.0313,26.088 0,14.35 -0.008,26.082 -0.0175,26.072 -0.01,-0.01 -1.8514,-5.1216 -4.0928,-11.36 l -4.0749,-11.342 -0.02,-12.385 -0.0196,-12.385 4.0812,-2.3432 c 2.2447,-1.289 4.0954,-2.3444 4.1125,-2.3456 z m 4.6416,-0.002 c 0.0129,0 1.8519,1.0525 4.0866,2.3394 l 4.0633,2.339 v 24.825 l -4.0662,11.279 c -2.2364,6.2042 -4.0853,11.318 -4.1083,11.363 -0.0288,0.0563 -0.0355,-4.936 -0.0204,-15.408 0.0117,-8.5208 0.0217,-20.272 0.0217,-26.115 0,-5.8426 0.0104,-10.623 0.0233,-10.623 z m -15.088,11.108 c 0.006,3.0395 0.006,8.0108 0,11.047 l -0.0104,5.521 -5.3584,-3.1054 c -2.947,-1.7076 -7.2395,-4.1946 -9.5385,-5.5265 -2.2994,-1.3323 -4.18,-2.4332 -4.1796,-2.4474 8.2e-4,-0.0137 4.293,-2.4978 9.5385,-5.5198 l 9.5385,-5.4975 z m 25.545,-5.5244 c 0.008,0 4.2909,2.4686 9.5182,5.486 5.2271,3.0174 9.516,5.4994 9.531,5.5148 0.0154,0.0158 -4.1758,2.4683 -9.3135,5.4498 -5.1374,2.9816 -9.4335,5.474 -9.5452,5.5391 l -0.20433,0.11842 v -11.054 c 0,-6.0794 0.006,-11.054 0.0142,-11.054 z m -46.55,12.562 c 0.0117,-10e-4 4.7963,2.7602 10.633,6.1361 l 10.612,6.1382 4.7059,13.066 c 2.5883,7.1862 4.6971,13.075 4.6867,13.085 -0.0104,0.0104 -4.0978,-2.3394 -9.0832,-5.2217 -4.9852,-2.8827 -9.6555,-5.5824 -10.378,-5.9998 -0.72224,-0.41742 -4.7476,-2.7442 -8.9445,-5.1708 l -10.696,-6.1841 c -1.6856,-0.97455 -3.5432,-2.0487 -4.1283,-2.3865 -0.58463,-0.33819 -1.9641,-1.135 -3.065,-1.7714 -1.1008,-0.63634 -2.0629,-1.1943 -2.138,-1.2398 l -0.13635,-0.0826 3.0554,-1.7656 c 1.6805,-0.97118 5.7108,-3.3034 8.9558,-5.1833 3.2455,-1.8798 5.9102,-3.4186 5.9214,-3.4202 z m 67.558,0.007 c 0.0142,0.005 4.0511,2.3344 8.9715,5.1783 4.9206,2.8439 8.934,5.1842 8.919,5.2004 -0.015,0.0158 -10.936,6.3363 -24.269,14.045 -13.334,7.7085 -24.251,14.006 -24.262,13.996 -0.0113,-0.0109 2.0975,-5.8989 4.6854,-13.084 l 4.7054,-13.064 0.66679,-0.38697 c 0.36654,-0.21309 5.142,-2.9757 10.612,-6.1395 5.4702,-3.1638 9.957,-5.7488 9.9705,-5.7446 z"
       id="icon" /></g></svg>
